<?xml version="1.0" encoding="UTF-8" standalone="no"?>
<!DOCTYPE svg PUBLIC "-//W3C//DTD SVG 20010904//EN"
              "http://www.w3.org/TR/2001/REC-SVG-20010904/DTD/svg10.dtd">

<svg xmlns="http://www.w3.org/2000/svg"
     width="13.3333in" height="3.93667in"
     viewBox="0 0 4000 1181">
  <path id="asyncA"
        fill="#ff0000" stroke="black" stroke-width="1"
        d="M 340.00,307.00
           C 340.00,307.00 285.00,307.00 285.00,307.00
             275.97,306.89 262.91,303.76 256.18,297.53
             249.54,291.38 247.82,281.67 248.01,273.00
             248.46,253.54 264.00,234.57 282.00,228.09
             287.84,225.99 297.73,225.01 304.00,225.00
             304.00,225.00 480.00,225.00 480.00,225.00
             481.97,225.00 485.69,224.74 487.27,225.99
             489.02,227.39 489.57,231.83 490.00,234.00
             490.00,234.00 494.20,254.00 494.20,254.00
             494.20,254.00 513.80,348.00 513.80,348.00
             513.80,348.00 545.79,501.00 545.79,501.00
             545.79,501.00 559.58,567.00 559.58,567.00
             559.58,567.00 563.06,583.98 563.06,583.98
             563.53,585.58 563.97,586.98 565.43,587.98
             567.31,589.26 570.77,588.94 573.00,589.04
             573.00,589.04 586.00,590.90 586.00,590.90
             602.00,594.81 611.86,607.38 610.91,624.00
             609.25,653.00 583.80,671.96 556.00,672.00
             556.00,672.00 427.00,672.00 427.00,672.00
             414.83,671.98 399.04,668.99 391.97,658.00
             389.10,653.54 387.57,646.28 387.18,641.00
             385.66,620.00 403.50,598.00 423.00,592.04
             434.32,588.58 453.85,589.00 466.00,589.00
             466.00,589.00 461.40,564.00 461.40,564.00
             460.89,561.46 460.25,556.36 458.42,554.60
             456.42,552.67 452.60,553.01 450.00,553.00
             450.00,553.00 285.00,553.00 285.00,553.00
             273.27,553.02 273.32,557.67 267.31,567.00
             267.31,567.00 253.00,589.00 253.00,589.00
             269.44,589.00 291.67,587.14 303.90,600.04
             320.40,617.44 310.29,646.04 294.00,659.68
             283.64,668.35 271.34,671.98 258.00,672.00
             258.00,672.00 133.00,672.00 133.00,672.00
             120.42,671.98 103.17,668.22 97.00,656.00
             93.88,649.84 93.93,643.69 94.00,637.00
             94.21,619.27 109.48,598.89 126.00,593.21
             130.57,591.64 137.18,590.26 142.00,590.04
             145.83,589.87 153.64,589.80 156.91,587.98
             160.28,586.10 163.76,579.40 166.00,576.00
             166.00,576.00 340.00,307.00 340.00,307.00 Z
           M 416.00,340.00
           C 416.00,340.00 414.00,340.00 414.00,340.00
             414.00,340.00 359.00,424.00 359.00,424.00
             359.00,424.00 340.00,453.00 340.00,453.00
             340.00,453.00 329.00,471.00 329.00,471.00
             329.00,471.00 442.00,471.00 442.00,471.00
             442.00,471.00 425.79,390.00 425.79,390.00
             425.79,390.00 416.00,340.00 416.00,340.00 Z" />
  <path id="youY"
        fill="#ff0000" stroke="black" stroke-width="1"
        d="M 793.00,590.00
           C 793.00,590.00 799.12,561.00 799.12,561.00
             799.12,561.00 809.79,513.00 809.79,513.00
             811.16,506.67 816.59,488.22 815.00,483.00
             815.00,483.00 803.25,459.00 803.25,459.00
             803.25,459.00 778.25,410.00 778.25,410.00
             778.25,410.00 745.25,344.00 745.25,344.00
             745.25,344.00 729.04,312.04 729.04,312.04
             724.22,305.12 718.11,307.67 711.00,306.38
             698.53,304.14 687.74,298.25 684.68,285.00
             678.92,260.07 695.24,235.76 719.00,227.89
             730.01,224.24 748.15,225.00 760.00,225.00
             760.00,225.00 828.00,225.00 828.00,225.00
             836.92,225.01 849.85,226.83 856.96,232.53
             864.57,238.62 867.90,248.55 868.00,258.00
             868.18,276.14 859.19,289.73 844.00,299.19
             839.12,302.23 836.64,303.67 831.00,305.00
             831.00,305.00 844.75,334.00 844.75,334.00
             844.75,334.00 878.00,400.00 878.00,400.00
             878.00,400.00 909.96,366.00 909.96,366.00
             909.96,366.00 934.04,340.00 934.04,340.00
             934.04,340.00 967.00,304.00 967.00,304.00
             944.58,297.45 942.82,269.48 952.88,252.00
             955.46,247.52 958.34,244.60 962.00,241.01
             974.51,228.76 987.86,225.03 1005.00,225.00
             1005.00,225.00 1094.00,225.00 1094.00,225.00
             1116.44,225.03 1134.56,235.13 1133.99,260.00
             1133.53,279.73 1116.74,299.68 1098.00,304.84
             1084.47,308.57 1077.98,305.53 1072.00,308.93
             1067.51,311.49 1057.51,322.69 1053.72,327.00
             1053.72,327.00 1040.28,341.00 1040.28,341.00
             1040.28,341.00 992.09,392.00 992.09,392.00
             992.09,392.00 960.09,426.00 960.09,426.00
             960.09,426.00 951.00,436.00 951.00,436.00
             951.00,436.00 919.96,469.00 919.96,469.00
             915.57,473.59 905.88,482.68 903.16,488.00
             903.16,488.00 895.20,522.00 895.20,522.00
             895.20,522.00 887.42,557.00 887.42,557.00
             887.42,557.00 880.00,590.00 880.00,590.00
             880.00,590.00 937.00,590.00 937.00,590.00
             946.33,590.11 957.73,592.06 964.96,598.33
             985.82,616.40 973.49,647.23 955.00,661.47
             946.20,668.25 933.03,671.87 922.00,672.00
             922.00,672.00 819.00,672.00 819.00,672.00
             819.00,672.00 716.00,672.00 716.00,672.00
             702.72,671.84 686.87,667.14 681.21,654.00
             678.77,648.35 678.93,642.99 679.00,637.00
             679.23,617.72 695.95,598.16 714.00,592.72
             725.02,589.40 735.68,590.00 747.00,590.00
             747.00,590.00 793.00,590.00 793.00,590.00 Z" />
  <path id="tubeT"
        fill="#ff0000" stroke="black" stroke-width="1"
        d="M 1184.00,225.00
           C 1184.00,225.00 1600.00,225.00 1600.00,225.00
             1600.00,225.00 1589.88,273.00 1589.88,273.00
             1589.88,273.00 1573.42,347.00 1573.42,347.00
             1570.23,361.46 1564.38,393.94 1556.78,405.00
             1539.66,429.91 1494.27,439.08 1480.32,409.00
             1478.53,405.14 1477.59,400.25 1477.37,396.00
             1477.00,388.69 1480.39,373.49 1482.12,366.00
             1482.12,366.00 1495.00,307.00 1495.00,307.00
             1495.00,307.00 1426.00,307.00 1426.00,307.00
             1423.79,307.00 1420.19,306.79 1418.31,308.02
             1415.23,310.05 1413.97,320.28 1413.12,324.00
             1413.12,324.00 1402.35,372.00 1402.35,372.00
             1402.35,372.00 1369.58,519.00 1369.58,519.00
             1369.58,519.00 1354.00,590.00 1354.00,590.00
             1354.00,590.00 1411.00,590.00 1411.00,590.00
             1420.15,590.11 1431.89,592.11 1439.00,598.21
             1456.50,613.24 1451.03,639.77 1436.83,654.96
             1426.35,666.17 1411.16,671.82 1396.00,672.00
             1396.00,672.00 1293.00,672.00 1293.00,672.00
             1293.00,672.00 1191.00,672.00 1191.00,672.00
             1177.37,671.84 1161.45,666.65 1155.93,653.00
             1153.74,647.59 1153.94,642.70 1154.00,637.00
             1154.24,616.79 1171.23,598.35 1190.00,592.72
             1200.64,589.53 1212.01,590.00 1223.00,590.00
             1223.00,590.00 1267.00,590.00 1267.00,590.00
             1267.00,590.00 1285.58,506.00 1285.58,506.00
             1285.58,506.00 1315.42,372.00 1315.42,372.00
             1315.42,372.00 1330.00,307.00 1330.00,307.00
             1330.00,307.00 1262.00,307.00 1262.00,307.00
             1259.41,307.01 1255.70,306.65 1253.72,308.60
             1251.72,310.57 1250.79,317.10 1250.12,320.00
             1250.12,320.00 1243.88,348.00 1243.88,348.00
             1240.73,361.71 1235.14,392.23 1228.53,403.00
             1221.97,413.70 1210.71,421.27 1199.00,425.30
             1194.05,427.01 1187.23,428.17 1182.00,427.96
             1165.51,427.31 1151.51,417.87 1148.46,401.00
             1147.22,394.10 1148.83,384.88 1150.20,378.00
             1150.20,378.00 1173.42,274.00 1173.42,274.00
             1173.42,274.00 1184.00,225.00 1184.00,225.00 Z" />
  <path id="oCurlB"
        fill="#ffffff" stroke="black" stroke-width="1"
        d="M 1921.00,195.14
           C 1921.00,195.14 1929.00,195.14 1929.00,195.14
             1929.00,195.14 1940.00,195.14 1940.00,195.14
             1954.68,195.07 1967.84,201.43 1972.90,216.00
             1973.99,219.15 1974.83,223.66 1974.96,227.00
             1975.92,251.54 1955.80,271.27 1933.00,276.50
             1918.52,279.83 1905.39,274.84 1896.41,291.00
             1891.54,299.77 1887.02,324.93 1884.58,336.00
             1884.58,336.00 1861.98,436.00 1861.98,436.00
             1858.32,447.82 1853.50,460.07 1845.96,470.00
             1845.96,470.00 1835.91,481.91 1835.91,481.91
             1834.33,483.52 1831.14,485.85 1830.72,488.09
             1830.27,490.48 1835.37,499.08 1836.55,502.00
             1840.12,510.85 1840.10,516.73 1840.00,526.00
             1839.87,536.72 1835.28,555.98 1833.00,567.00
             1833.00,567.00 1815.58,646.00 1815.58,646.00
             1815.58,646.00 1809.12,675.00 1809.12,675.00
             1808.18,679.08 1805.85,689.22 1806.37,693.00
             1808.22,706.54 1825.72,703.20 1836.00,705.51
             1852.03,709.12 1860.45,719.95 1861.68,736.00
             1861.91,739.11 1860.70,747.93 1859.79,751.00
             1850.63,782.03 1817.71,791.05 1789.00,786.56
             1745.97,779.84 1717.50,746.55 1718.00,703.00
             1718.15,690.52 1722.44,675.35 1725.00,663.00
             1725.00,663.00 1742.21,584.00 1742.21,584.00
             1742.21,584.00 1748.35,556.00 1748.35,556.00
             1749.28,551.87 1751.44,543.91 1750.77,540.00
             1748.98,529.50 1733.09,530.09 1725.00,528.33
             1708.39,524.73 1699.41,515.30 1699.01,498.00
             1698.48,474.68 1711.07,456.96 1733.00,449.09
             1747.18,444.00 1765.37,447.94 1774.05,433.00
             1775.86,429.88 1777.57,424.54 1778.57,421.00
             1778.57,421.00 1786.42,386.00 1786.42,386.00
             1786.42,386.00 1801.35,320.00 1801.35,320.00
             1805.15,303.43 1807.75,286.43 1815.26,271.00
             1828.86,243.02 1852.28,221.39 1880.00,207.76
             1892.97,201.37 1906.76,197.57 1921.00,195.14 Z" />
  <path id="applicationA"
        fill="#ffffff" stroke="black" stroke-width="1"
        d="M 2240.00,307.00
           C 2240.00,307.00 2185.00,307.00 2185.00,307.00
             2175.97,306.89 2162.91,303.76 2156.18,297.53
             2149.54,291.38 2147.82,281.67 2148.01,273.00
             2148.46,253.54 2164.00,234.57 2182.00,228.09
             2187.84,225.99 2197.73,225.01 2204.00,225.00
             2204.00,225.00 2380.00,225.00 2380.00,225.00
             2381.97,225.00 2385.69,224.74 2387.27,225.99
             2389.02,227.39 2389.57,231.83 2390.00,234.00
             2390.00,234.00 2394.00,253.00 2394.00,253.00
             2394.00,253.00 2413.60,347.00 2413.60,347.00
             2413.60,347.00 2445.79,501.00 2445.79,501.00
             2445.79,501.00 2459.58,567.00 2459.58,567.00
             2459.58,567.00 2463.06,583.98 2463.06,583.98
             2465.08,590.85 2473.08,588.88 2479.00,589.73
             2489.20,591.19 2500.29,594.41 2505.84,604.00
             2509.31,610.00 2504.14,613.86 2501.31,619.00
             2496.92,627.01 2495.90,631.99 2496.00,641.00
             2496.04,644.41 2497.63,651.86 2496.97,653.91
             2496.02,656.89 2491.48,660.42 2489.00,662.24
             2479.44,669.26 2467.70,671.98 2456.00,672.00
             2456.00,672.00 2327.00,672.00 2327.00,672.00
             2314.83,671.98 2299.04,668.99 2291.97,658.00
             2289.10,653.54 2287.57,646.28 2287.18,641.00
             2285.66,620.00 2303.50,598.00 2323.00,592.04
             2334.32,588.58 2353.85,589.00 2366.00,589.00
             2366.00,589.00 2361.40,564.00 2361.40,564.00
             2360.89,561.46 2360.25,556.36 2358.42,554.60
             2356.42,552.67 2352.60,553.01 2350.00,553.00
             2350.00,553.00 2185.00,553.00 2185.00,553.00
             2173.27,553.02 2173.32,557.67 2167.31,567.00
             2167.31,567.00 2153.00,589.00 2153.00,589.00
             2169.44,589.00 2191.67,587.14 2203.90,600.04
             2220.40,617.44 2210.29,646.04 2194.00,659.68
             2183.64,668.35 2171.34,671.98 2158.00,672.00
             2158.00,672.00 2033.00,672.00 2033.00,672.00
             2020.42,671.98 2003.17,668.22 1997.00,656.00
             1993.88,649.84 1993.93,643.69 1994.00,637.00
             1994.21,619.27 2009.48,598.89 2026.00,593.21
             2030.57,591.64 2037.18,590.26 2042.00,590.04
             2045.83,589.87 2053.64,589.80 2056.91,587.98
             2060.28,586.10 2063.76,579.40 2066.00,576.00
             2066.00,576.00 2240.00,307.00 2240.00,307.00 Z
           M 2316.00,340.00
           C 2316.00,340.00 2314.00,340.00 2314.00,340.00
             2314.00,340.00 2259.00,424.00 2259.00,424.00
             2259.00,424.00 2240.00,453.00 2240.00,453.00
             2240.00,453.00 2229.00,471.00 2229.00,471.00
             2229.00,471.00 2342.00,471.00 2342.00,471.00
             2342.00,471.00 2325.79,390.00 2325.79,390.00
             2325.79,390.00 2316.00,340.00 2316.00,340.00 Z" />
  <path id="programmingP"
        fill="#306990" stroke="black" stroke-width="1"
        d="M 2632.00,307.00
           C 2617.56,307.00 2596.62,308.36 2585.44,297.53
             2580.62,292.87 2579.08,288.40 2577.81,282.00
             2573.50,260.33 2588.01,239.31 2607.00,229.81
             2614.32,226.15 2624.86,225.01 2633.00,225.00
             2633.00,225.00 2834.00,225.00 2834.00,225.00
             2850.77,225.03 2875.07,229.04 2891.00,234.33
             2906.60,239.52 2919.92,245.76 2933.00,255.89
             2940.97,262.06 2948.99,270.66 2954.66,279.00
             2960.54,287.66 2963.72,294.09 2967.00,304.00
             2986.16,361.99 2959.34,417.88 2919.91,460.00
             2913.93,466.39 2898.34,479.60 2891.00,484.65
             2862.07,504.55 2833.54,513.78 2799.00,518.28
             2799.00,518.28 2769.00,521.00 2769.00,521.00
             2769.00,521.00 2734.00,521.00 2734.00,521.00
             2734.00,521.00 2671.00,521.00 2671.00,521.00
             2671.00,521.00 2657.00,590.00 2657.00,590.00
             2657.00,590.00 2737.00,590.00 2737.00,590.00
             2745.75,590.01 2757.75,591.46 2765.00,596.64
             2787.05,612.37 2778.47,643.27 2761.00,658.82
             2750.21,668.41 2736.15,671.98 2722.00,672.00
             2722.00,672.00 2536.00,672.00 2536.00,672.00
             2525.45,671.98 2510.91,669.56 2503.18,661.82
             2494.29,652.91 2495.45,631.64 2500.49,621.00
             2510.37,600.15 2528.43,590.27 2551.00,590.00
             2551.00,590.00 2561.00,590.00 2561.00,590.00
             2570.57,589.94 2569.37,588.49 2572.65,574.00
             2572.65,574.00 2583.65,525.00 2583.65,525.00
             2583.65,525.00 2614.42,387.00 2614.42,387.00
             2614.42,387.00 2632.00,307.00 2632.00,307.00 Z
           M 2690.00,439.00
           C 2690.00,439.00 2783.00,439.00 2783.00,439.00
             2820.46,438.94 2862.59,420.32 2875.91,383.00
             2879.78,372.17 2880.13,365.25 2880.00,354.00
             2879.73,330.94 2862.68,317.26 2842.00,311.43
             2826.94,307.18 2805.79,307.00 2790.00,307.00
             2790.00,307.00 2727.00,307.00 2727.00,307.00
             2725.03,307.00 2721.31,306.74 2719.73,307.99
             2718.05,309.33 2717.37,313.88 2716.88,316.00
             2716.88,316.00 2712.21,337.00 2712.21,337.00
             2712.21,337.00 2698.35,400.00 2698.35,400.00
             2698.35,400.00 2690.00,439.00 2690.00,439.00 Z" />
  <path id="interfaceI"
        fill="#ffd430" stroke="black" stroke-width="1"
        d="M 3231.00,307.00
           C 3231.00,307.00 3158.00,307.00 3158.00,307.00
             3144.59,307.00 3129.45,307.77 3118.01,299.37
             3108.07,292.06 3107.87,282.06 3108.00,271.00
             3108.17,256.43 3116.16,245.87 3127.00,236.92
             3130.85,233.75 3135.34,230.35 3140.00,228.48
             3145.82,226.14 3156.66,225.01 3163.00,225.00
             3163.00,225.00 3360.00,225.00 3360.00,225.00
             3360.00,225.00 3405.00,225.00 3405.00,225.00
             3415.56,225.00 3426.72,224.37 3437.00,227.16
             3451.64,231.13 3460.56,245.15 3459.96,260.00
             3459.19,279.18 3442.08,299.17 3424.00,304.56
             3412.27,308.06 3396.42,307.00 3384.00,307.00
             3384.00,307.00 3317.00,307.00 3317.00,307.00
             3317.00,307.00 3309.42,344.00 3309.42,344.00
             3309.42,344.00 3294.42,412.00 3294.42,412.00
             3294.42,412.00 3268.42,530.00 3268.42,530.00
             3268.42,530.00 3260.42,566.00 3260.42,566.00
             3260.42,566.00 3255.00,590.00 3255.00,590.00
             3255.00,590.00 3327.00,590.00 3327.00,590.00
             3340.10,590.00 3354.75,589.15 3365.96,597.22
             3382.95,609.45 3380.47,634.90 3369.24,650.00
             3357.96,665.17 3341.53,671.97 3323.00,672.00
             3323.00,672.00 3126.00,672.00 3126.00,672.00
             3126.00,672.00 3105.00,672.00 3105.00,672.00
             3090.59,672.00 3062.78,673.26 3050.00,670.10
             3039.07,667.40 3030.04,661.49 3027.24,650.00
             3026.18,645.65 3025.91,642.46 3026.01,638.00
             3026.47,617.78 3043.06,598.61 3062.00,592.77
             3073.91,589.10 3090.43,590.00 3103.00,590.00
             3103.00,590.00 3168.00,590.00 3168.00,590.00
             3168.00,590.00 3176.58,550.00 3176.58,550.00
             3176.58,550.00 3193.58,474.00 3193.58,474.00
             3193.58,474.00 3216.58,371.00 3216.58,371.00
             3216.58,371.00 3231.00,307.00 3231.00,307.00 Z" />
  <path id="cCurlB"
        fill="#ffd430" stroke="black" stroke-width="1"
        d="M 3700.00,195.23
           C 3705.49,194.70 3711.43,194.99 3717.00,195.23
             3728.45,195.02 3739.53,197.58 3750.00,202.15
             3782.94,216.53 3798.40,246.15 3798.00,281.00
             3797.88,291.22 3793.19,308.41 3791.00,319.00
             3791.00,319.00 3772.80,403.00 3772.80,403.00
             3772.80,403.00 3765.10,439.00 3765.10,439.00
             3764.48,453.77 3783.10,451.25 3795.00,455.03
             3813.19,460.81 3819.43,474.81 3816.56,493.00
             3813.21,514.27 3798.47,528.44 3778.00,533.84
             3764.43,537.42 3748.62,535.12 3740.99,550.00
             3738.33,555.19 3736.67,564.15 3735.35,570.00
             3735.35,570.00 3727.58,605.00 3727.58,605.00
             3727.58,605.00 3713.65,667.00 3713.65,667.00
             3710.61,680.45 3708.40,694.34 3702.69,707.00
             3688.11,739.33 3663.70,761.25 3632.00,776.22
             3616.66,783.46 3599.83,786.84 3583.00,787.91
             3572.92,788.55 3557.64,784.85 3550.30,777.68
             3538.72,766.36 3539.47,746.53 3546.37,733.00
             3553.76,718.51 3568.35,708.95 3584.00,705.66
             3597.83,702.76 3611.00,706.62 3619.47,692.00
             3624.04,684.12 3628.53,659.21 3630.88,649.00
             3630.88,649.00 3651.87,555.00 3651.87,555.00
             3655.47,540.63 3660.15,526.24 3668.72,514.00
             3672.96,507.95 3674.91,506.14 3680.00,501.00
             3681.68,499.30 3684.95,496.34 3685.48,494.00
             3686.07,491.39 3682.40,485.67 3681.18,483.00
             3677.95,475.93 3676.09,469.82 3676.00,462.00
             3675.81,445.08 3680.93,425.60 3684.58,409.00
             3684.58,409.00 3701.21,333.00 3701.21,333.00
             3701.21,333.00 3707.60,304.00 3707.60,304.00
             3708.28,300.62 3710.03,293.07 3709.86,290.00
             3709.06,275.56 3690.72,279.12 3680.00,276.24
             3661.11,271.18 3654.79,259.45 3655.00,241.00
             3655.30,215.47 3677.31,200.36 3700.00,195.23 Z" />
  <path id="aytUnderline"
        fill="#ff0000" stroke="black" stroke-width="1"
        d="M 94.00,698.00
           C 94.00,698.00 1531.00,698.00 1531.00,698.00
             1531.00,698.00 1531.00,786.00 1531.00,786.00
             1531.00,786.00 94.00,786.00 94.00,786.00
             94.00,786.00 94.00,698.00 94.00,698.00 Z" />
   <path id="applicationAUnderline"
        fill="#ffffff" stroke="black" stroke-width="1"
        d="M 1994.00,698.00
           C 1994.00,698.00 2481.00,698.00 2481.00,698.00
             2481.00,698.00 2481.00,786.00 2481.00,786.00
             2481.00,786.00 1994.00,786.00 1994.00,786.00
             1994.00,786.00 1994.00,698.00 1994.00,698.00 Z" />
   <path id="programmingPUnderline"
        fill="#306990" stroke="black" stroke-width="1"
        d="M 2481.00,698.00
           C 2481.00,698.00 2956.00,698.00 2956.00,698.00
             2956.00,698.00 2956.00,786.00 2956.00,786.00
             2956.00,786.00 2481.00,786.00 2481.00,786.00
             2481.00,786.00 2481.00,698.00 2481.00,698.00 Z" />
   <path id="interfaceIUnderline"
        fill="#ffd430" stroke="black" stroke-width="1"
        d="M 2956.00,698.00
           C 2956.00,698.00 3431.00,698.00 3431.00,698.00
             3431.00,698.00 3431.00,786.00 3431.00,786.00
             3431.00,786.00 2956.00,786.00 2956.00,786.00
             2956.00,786.00 2956.00,698.00 2956.00,698.00 Z" />
</svg>
