<?xml version="1.0" encoding="UTF-8" standalone="no"?>
<!DOCTYPE svg PUBLIC "-//W3C//DTD SVG 20010904//EN"
              "http://www.w3.org/TR/2001/REC-SVG-20010904/DTD/svg10.dtd">

<svg xmlns="http://www.w3.org/2000/svg"
     width="3.41333in" height="3.41333in"
     viewBox="0 0 1024 1024">
  <path id="asyncA"
        fill="#ff0000" stroke="black" stroke-width="1"
        d="M 294.00,203.00
           C 294.00,203.00 270.00,203.00 270.00,203.00
             265.54,202.94 260.69,202.54 257.11,199.57
             245.98,190.34 254.93,173.97 265.00,168.22
             269.11,165.87 278.17,165.06 283.00,165.00
             283.00,165.00 362.00,165.00 362.00,165.00
             362.00,165.00 371.00,208.00 371.00,208.00
             371.00,208.00 384.42,273.00 384.42,273.00
             384.42,273.00 396.00,331.00 396.00,331.00
             402.15,331.06 409.20,331.56 413.78,336.21
             423.11,345.68 415.16,361.35 405.00,366.44
             397.93,369.99 387.86,369.00 380.00,369.00
             380.00,369.00 333.00,369.00 333.00,369.00
             328.18,368.94 322.97,368.21 319.39,364.61
             313.07,358.24 315.95,346.04 321.21,340.02
             329.42,330.61 339.56,331.00 351.00,331.00
             350.71,327.43 349.76,318.04 346.69,316.02
             344.81,314.79 341.21,315.00 339.00,315.00
             339.00,315.00 274.00,315.00 274.00,315.00
             272.12,315.00 268.89,314.88 267.21,315.60
             264.06,316.95 257.87,327.68 256.00,331.00
             262.56,331.00 271.69,330.68 276.90,335.28
             285.68,343.02 281.94,356.74 273.91,363.47
             268.10,368.34 263.20,368.99 256.00,369.00
             256.00,369.00 202.00,369.00 202.00,369.00
             197.73,368.99 192.86,369.02 189.02,366.86
             179.78,361.69 180.94,349.73 185.97,342.00
             188.89,337.51 193.76,333.80 199.00,332.53
             204.37,331.23 208.91,332.68 212.96,327.86
             212.96,327.86 235.00,294.00 235.00,294.00
             235.00,294.00 294.00,203.00 294.00,203.00 Z
           M 329.00,218.00
           C 329.00,218.00 314.00,240.00 314.00,240.00
             314.00,240.00 301.67,259.00 301.67,259.00
             301.67,259.00 290.00,277.00 290.00,277.00
             290.00,277.00 340.00,277.00 340.00,277.00
             340.00,277.00 329.00,218.00 329.00,218.00 Z" />
  <path id="youY"
        fill="#ff0000" stroke="black" stroke-width="1"
        d="M 541.00,331.00
           C 549.81,331.00 559.34,330.48 568.00,331.73
             572.08,332.32 575.51,332.54 578.81,335.42
             588.83,344.13 582.25,358.95 573.00,365.15
             567.70,368.70 563.11,368.99 557.00,369.00
             557.00,369.00 466.00,369.00 466.00,369.00
             461.97,368.95 457.48,368.63 454.04,366.28
             445.72,360.59 447.02,348.19 452.56,341.04
             459.42,332.17 469.55,331.05 480.00,331.00
             480.00,331.00 493.00,331.00 493.00,331.00
             496.23,330.94 498.64,331.05 500.35,327.85
             500.35,327.85 507.35,298.00 507.35,298.00
             507.92,295.48 510.18,286.52 509.93,284.58
             509.56,281.67 500.23,263.97 498.25,260.00
             498.25,260.00 481.25,226.00 481.25,226.00
             481.25,226.00 471.65,207.11 471.65,207.11
             467.08,200.31 461.85,205.27 455.11,199.58
             448.59,194.08 449.10,183.56 453.65,177.00
             456.29,173.18 460.67,169.25 465.00,167.48
             469.22,165.76 471.74,166.23 476.00,165.72
             476.00,165.72 510.00,165.00 510.00,165.00
             514.91,165.06 525.02,165.92 528.96,168.70
             539.35,176.03 536.34,196.65 518.00,202.00
             518.00,202.00 538.00,244.00 538.00,244.00
             538.00,244.00 579.00,202.00 579.00,202.00
             564.17,193.96 569.59,176.40 582.00,168.98
             587.55,165.66 590.19,166.41 596.00,165.72
             596.00,165.72 629.00,165.00 629.00,165.00
             633.85,165.01 644.97,165.68 648.96,168.09
             657.84,173.44 656.93,185.39 651.89,193.00
             648.47,198.16 644.03,201.15 638.00,202.48
             633.07,203.58 629.54,202.56 625.28,206.30
             625.28,206.30 603.91,229.00 603.91,229.00
             603.91,229.00 572.83,262.00 572.83,262.00
             568.25,267.07 553.72,280.96 550.98,286.00
             549.73,288.32 547.51,299.66 546.79,303.00
             546.79,303.00 541.00,331.00 541.00,331.00 Z" />
  <path id="tubeT"
        fill="#ff0000" stroke="black" stroke-width="1"
        d="M 678.00,165.00
           C 678.00,165.00 868.00,165.00 868.00,165.00
             868.00,165.00 855.65,221.00 855.65,221.00
             854.01,228.24 851.78,242.23 847.75,247.91
             837.64,262.16 811.59,262.13 811.34,243.00
             811.34,243.00 819.00,203.00 819.00,203.00
             819.00,203.00 784.00,203.00 784.00,203.00
             784.00,203.00 776.42,239.00 776.42,239.00
             776.42,239.00 756.00,331.00 756.00,331.00
             756.00,331.00 783.00,331.58 783.00,331.58
             787.43,332.22 791.14,332.38 794.67,335.56
             798.33,338.85 798.99,342.32 798.99,347.00
             799.00,360.64 787.91,368.84 775.00,369.00
             775.00,369.00 684.00,369.00 684.00,369.00
             678.66,368.99 673.51,369.01 669.11,365.43
             660.21,358.21 664.23,343.86 672.04,337.53
             683.13,328.53 702.45,331.00 716.00,331.00
             716.00,331.00 722.58,300.00 722.58,300.00
             722.58,300.00 744.00,203.00 744.00,203.00
             744.00,203.00 719.00,203.00 719.00,203.00
             716.79,203.00 713.19,202.79 711.31,204.02
             708.20,206.06 706.30,219.01 705.42,223.00
             702.76,235.08 702.36,247.09 691.00,254.29
             686.14,257.37 682.72,258.21 677.00,257.96
             663.48,257.37 660.63,247.56 662.44,236.00
             662.44,236.00 666.58,217.00 666.58,217.00
             666.58,217.00 673.65,185.00 673.65,185.00
             673.65,185.00 678.00,165.00 678.00,165.00 Z" />
  <path id="oCurlB"
        fill="#ffffff" stroke="black" stroke-width="1"
        d="M 146.00,513.44
           C 157.83,511.92 173.91,511.90 173.97,528.00
             173.98,530.08 173.79,531.99 173.21,534.00
             171.04,541.53 164.36,547.48 157.00,549.78
             148.73,552.37 142.20,548.79 137.48,560.00
             135.45,564.81 133.76,574.59 132.58,580.00
             132.58,580.00 122.71,623.00 122.71,623.00
             121.11,628.40 119.00,633.33 115.78,638.00
             114.48,639.89 110.00,644.83 109.62,646.42
             108.95,649.25 112.38,652.27 112.91,660.00
             113.32,665.95 110.91,676.91 109.58,683.00
             109.58,683.00 101.12,721.00 101.12,721.00
             100.25,724.77 97.37,735.77 98.17,738.98
             99.62,744.83 106.39,743.88 111.00,745.04
             117.57,746.70 121.23,750.26 122.37,757.00
             125.15,773.43 108.62,783.74 94.00,782.91
             70.87,781.59 56.74,765.90 57.00,743.00
             57.00,743.00 67.42,691.00 67.42,691.00
             67.42,691.00 71.39,671.04 71.39,671.04
             70.71,665.07 62.51,666.09 57.00,663.86
             48.21,660.30 46.65,651.23 49.22,643.00
             51.46,635.83 56.05,631.24 63.00,628.48
             69.39,625.94 77.62,627.57 81.92,620.90
             83.03,619.17 84.00,616.02 84.57,614.00
             84.57,614.00 93.58,574.00 93.58,574.00
             97.62,555.70 99.00,545.00 113.00,531.00
             118.43,525.58 122.18,522.76 129.00,519.26
             135.44,515.95 138.92,514.76 146.00,513.44 Z" />
  <path id="applicationA"
        fill="#ffffff" stroke="black" stroke-width="1"
        d="M 294.00,564.00
           C 294.00,564.00 270.00,564.00 270.00,564.00
             265.54,563.94 260.69,563.54 257.11,560.57
             245.98,551.34 254.93,534.97 265.00,529.22
             269.11,526.87 278.17,526.06 283.00,526.00
             283.00,526.00 362.00,526.00 362.00,526.00
             362.00,526.00 371.00,569.00 371.00,569.00
             371.00,569.00 384.42,634.00 384.42,634.00
             384.42,634.00 396.00,692.00 396.00,692.00
             401.42,692.05 415.44,693.22 415.18,701.00
             415.05,704.94 410.52,706.64 410.80,717.00
             411.11,728.61 400.21,729.99 391.00,730.00
             391.00,730.00 333.00,730.00 333.00,730.00
             328.18,729.94 322.97,729.21 319.39,725.61
             313.07,719.24 315.95,707.04 321.21,701.02
             329.42,691.61 339.56,692.00 351.00,692.00
             350.71,688.43 349.76,679.04 346.69,677.02
             344.81,675.79 341.21,676.00 339.00,676.00
             339.00,676.00 274.00,676.00 274.00,676.00
             272.12,676.00 268.89,675.88 267.21,676.60
             264.06,677.95 257.87,688.68 256.00,692.00
             262.56,692.00 271.69,691.68 276.90,696.28
             285.68,704.02 281.94,717.74 273.91,724.47
             268.10,729.34 263.20,729.99 256.00,730.00
             256.00,730.00 202.00,730.00 202.00,730.00
             197.73,729.99 192.86,730.02 189.02,727.86
             179.78,722.69 180.94,710.73 185.97,703.00
             188.89,698.51 193.76,694.80 199.00,693.53
             204.37,692.23 208.91,693.68 212.96,688.86
             212.96,688.86 235.00,655.00 235.00,655.00
             235.00,655.00 294.00,564.00 294.00,564.00 Z
           M 329.00,579.00
           C 329.00,579.00 314.00,601.00 314.00,601.00
             314.00,601.00 301.67,620.00 301.67,620.00
             301.67,620.00 290.00,638.00 290.00,638.00
             290.00,638.00 340.00,638.00 340.00,638.00
             340.00,638.00 329.00,579.00 329.00,579.00 Z" />
  <path id="programmingP"
        fill="#306990" stroke="black" stroke-width="1"
        d="M 472.00,564.00
           C 466.19,564.00 457.99,564.66 453.04,561.28
             449.86,559.10 448.66,556.67 447.94,553.00
             446.03,543.18 450.88,535.23 459.00,529.85
             464.04,526.51 473.96,526.01 480.00,526.00
             480.00,526.00 543.00,526.00 543.00,526.00
             560.00,526.00 580.09,526.02 596.00,532.45
             601.37,534.62 607.68,538.34 612.00,542.18
             620.08,549.37 624.56,557.52 626.79,568.00
             632.87,596.61 616.60,624.19 595.00,641.74
             568.29,663.43 532.45,661.94 500.00,662.00
             497.40,662.01 493.58,661.67 491.58,663.60
             489.81,665.31 489.30,669.60 488.79,672.00
             488.79,672.00 484.00,692.00 484.00,692.00
             484.00,692.00 514.00,692.00 514.00,692.00
             519.51,692.01 529.39,692.50 533.82,695.85
             543.86,703.46 538.49,718.99 529.99,725.44
             524.56,729.56 519.50,729.99 513.00,730.00
             513.00,730.00 430.00,730.00 430.00,730.00
             421.27,729.99 413.32,729.14 411.60,719.00
             410.91,714.96 411.06,711.85 412.61,708.00
             415.34,701.21 420.73,695.24 428.00,693.53
             431.98,692.59 441.50,693.04 443.84,689.69
             445.08,687.92 446.66,679.57 447.21,677.00
             447.21,677.00 453.00,651.00 453.00,651.00
             453.00,651.00 463.88,602.00 463.88,602.00
             463.88,602.00 472.00,564.00 472.00,564.00 Z
           M 499.00,624.00
           C 517.98,624.00 548.19,626.06 565.00,617.87
             584.67,608.29 594.46,579.56 574.00,568.82
             566.96,565.13 563.31,565.54 556.00,564.83
             556.00,564.83 512.00,564.00 512.00,564.00
             512.00,564.00 506.65,590.00 506.65,590.00
             506.65,590.00 499.00,624.00 499.00,624.00 Z" />
  <path id="interfaceI"
        fill="#ffd430" stroke="black" stroke-width="1"
        d="M 745.00,564.00
           C 745.00,564.00 708.00,564.00 708.00,564.00
             703.04,563.99 698.39,563.95 694.10,561.01
             688.20,556.95 687.75,547.06 690.36,541.00
             692.11,536.96 695.44,533.18 699.00,530.64
             704.82,526.48 714.94,526.01 722.00,526.00
             722.00,526.00 824.00,526.00 824.00,526.00
             831.35,526.01 840.57,526.17 845.77,532.05
             854.45,541.86 846.16,563.73 826.00,564.00
             826.00,564.00 794.00,564.00 794.00,564.00
             791.40,564.01 787.59,563.67 785.58,565.60
             783.93,567.19 783.17,571.71 782.65,574.00
             782.65,574.00 778.42,593.00 778.42,593.00
             778.42,593.00 764.58,656.00 764.58,656.00
             764.58,656.00 757.00,692.00 757.00,692.00
             757.00,692.00 787.00,692.00 787.00,692.00
             792.48,692.01 802.42,692.50 806.81,695.85
             816.78,703.46 811.53,719.05 803.00,725.44
             797.50,729.57 792.56,729.99 786.00,730.00
             786.00,730.00 671.00,730.00 671.00,730.00
             665.79,729.99 660.46,729.88 656.27,726.35
             649.41,720.71 651.33,708.13 656.27,702.00
             663.53,693.22 673.30,692.05 684.00,692.00
             684.00,692.00 707.00,692.00 707.00,692.00
             709.18,692.00 712.74,692.22 714.57,690.98
             717.07,689.29 717.61,684.76 718.21,682.00
             718.21,682.00 722.65,662.00 722.65,662.00
             722.65,662.00 736.58,600.00 736.58,600.00
             736.58,600.00 745.00,564.00 745.00,564.00 Z" />
  <path id="cCurlB"
        fill="#ffd430" stroke="black" stroke-width="1"
        d="M 952.00,650.00
           C 949.21,643.51 946.67,639.41 947.09,632.00
             947.09,632.00 958.00,578.00 958.00,578.00
             958.87,573.92 962.36,560.20 961.98,557.02
             961.10,549.75 953.10,552.02 947.00,549.52
             936.65,545.28 935.04,534.06 940.07,525.00
             949.23,508.51 975.84,510.37 989.00,520.53
             999.49,528.63 1003.14,539.17 1003.00,552.00
             1002.92,558.43 1000.15,569.37 998.65,576.00
             998.65,576.00 991.79,608.00 991.79,608.00
             991.79,608.00 988.61,622.98 988.61,622.98
             988.46,629.93 997.32,629.45 1002.00,631.11
             1010.27,634.03 1013.09,640.70 1011.53,649.00
             1009.76,658.50 1004.14,664.20 995.00,666.96
             988.49,668.92 981.28,668.14 977.44,675.04
             975.47,678.59 972.65,693.16 971.58,698.00
             971.58,698.00 966.21,722.00 966.21,722.00
             961.89,742.05 959.29,755.42 942.00,768.99
             935.71,773.92 931.44,776.36 924.00,779.19
             916.92,781.88 906.48,783.95 899.00,782.33
             886.83,779.69 882.76,768.90 887.92,758.00
             890.95,751.59 897.20,746.92 904.00,745.24
             910.79,743.56 917.36,744.99 921.44,737.96
             923.53,734.37 925.99,721.73 927.00,717.00
             927.00,717.00 936.72,674.00 936.72,674.00
             939.34,665.16 943.24,654.34 952.00,650.00 Z" />
  <path id="aytUnderline"
        fill="#ff0000" stroke="black" stroke-width="1"
        d="M 182.00,380.00
           C 182.00,380.00 868.00,380.00 868.00,380.00
             868.00,380.00 868.00,420.00 868.00,420.00
             868.00,420.00 182.00,420.00 182.00,420.00
             182.00,420.00 182.00,380.00 182.00,380.00 Z" />
  <path id="applicationAUnderline"
        fill="#ffffff" stroke="black" stroke-width="1"
        d="M 182.00,741.00
           C 182.00,741.00 404.00,741.00 404.00,741.00
             404.00,741.00 404.00,781.00 404.00,781.00
             404.00,781.00 182.00,781.00 182.00,781.00
             182.00,781.00 182.00,741.00 182.00,741.00 Z" />
  <path id="programmingPUnderline"
        fill="#306990" stroke="black" stroke-width="1"
        d="M 404.00,741.00
           C 404.00,741.00 620.00,741.00 620.00,741.00
             620.00,741.00 620.00,781.00 620.00,781.00
             620.00,781.00 404.00,781.00 404.00,781.00
             404.00,781.00 404.00,741.00 404.00,741.00 Z" />
  <path id="interfaceIUnderscore"
        fill="#ffd430" stroke="black" stroke-width="1"
        d="M 620.00,741.00
           C 620.00,741.00 836.00,741.00 836.00,741.00
             836.00,741.00 836.00,781.00 836.00,781.00
             836.00,781.00 620.00,781.00 620.00,781.00
             620.00,781.00 620.00,741.00 620.00,741.00 Z" />
</svg>
